# xmcd
#
# Track frame offsets:
#	150
#	17264
#	34256
#	47208
#	67880
#	85015
#	96589
#	111359
#	129333
#	144955
#	159607
#	176416
#	187568
#	201560
#	213789
#	229831
#	241668
#	257495
#	271857
#	292562
#	308159
#	324261
#	346158
#
# Disc length: 4700 seconds
#
# Revision: 0
# Processed by: cddbd v1.5.1PL0 Copyright (c) Steve Scherf et al.
# Submitted via: audiograbber 1.80
#
DISCID=2b125a17
DTITLE=Rosie Flores - After The Farm - Dance Hall Dreams
DYEAR=1900
DGENRE=
TTITLE0=More To Offer
TTITLE1=Price You Pay
TTITLE2=Blue Highway
TTITLE3=This Loneliness
TTITLE4=Sold On You
TTITLE5=That's Me
TTITLE6=Goin' Through The Motions
TTITLE7=Oh Heartache
TTITLE8=Dream Dream Blue
TTITLE9=Dent In My Heart
TTITLE10=West Texas Plains
TTITLE11=Little Bit More
TTITLE12=We'll Survive
TTITLE13=Tremolo
TTITLE14=Who's Gonna Fix It Now
TTITLE15=Funnel Of Love
TTITLE16=From Where I Stand
TTITLE17=Bring It On
TTITLE18=The Man Downstairs
TTITLE19='59 Tweedle Dee
TTITLE20=This Ol' Honky Tonk
TTITLE21=It Came From Memphis
TTITLE22=Dance Hall Dreams
EXTD=
EXTT0=
EXTT1=
EXTT2=
EXTT3=
EXTT4=
EXTT5=
EXTT6=
EXTT7=
EXTT8=
EXTT9=
EXTT10=
EXTT11=
EXTT12=
EXTT13=
EXTT14=
EXTT15=
EXTT16=
EXTT17=
EXTT18=
EXTT19=
EXTT20=
EXTT21=
EXTT22=
PLAYORDER=
